<svg xmlns="http://www.w3.org/2000/svg" xmlns:xlink="http://www.w3.org/1999/xlink" width="39" height="34.5" viewBox="0 0 39 34.5"><defs><style>.a{fill:none;}.b{fill:#fff;}.c{filter:url(#a);}</style><filter id="a" x="0" y="1.5" width="39" height="33" filterUnits="userSpaceOnUse"><feOffset dy="3" input="SourceAlpha"/><feGaussianBlur stdDeviation="1.5" result="b"/><feFlood flood-opacity="0.161"/><feComposite operator="in" in2="b"/><feComposite in="SourceGraphic"/></filter></defs><g transform="translate(4.5)"><path class="a" d="M0,0H30V30H0Z"/><g class="c" transform="matrix(1, 0, 0, 1, -4.5, 0)"><path class="b" d="M27.5,3H8.75A2.323,2.323,0,0,0,6.762,4.173L0,15,6.762,25.813A2.481,2.481,0,0,0,8.837,27H27.5A2.6,2.6,0,0,0,30,24.333V5.667A2.6,2.6,0,0,0,27.5,3ZM11.25,17a2,2,0,0,1,0-4,2,2,0,0,1,0,4Zm6.25,0a2,2,0,1,1,1.875-2A1.938,1.938,0,0,1,17.5,17Zm6.25,0a2,2,0,1,1,1.875-2A1.938,1.938,0,0,1,23.75,17Z" transform="translate(4.5 0)"/></g></g></svg>