<svg xmlns="http://www.w3.org/2000/svg" width="23" height="30.667" viewBox="0 0 23 30.667"><defs><style>.a{fill:#c3c3c3;}</style></defs><g transform="translate(-64 0)"><g transform="translate(64 0)"><path class="a" d="M86.934,17.955c-.351-4.574-2.481-7.44-4.359-9.969C80.836,5.645,79.333,3.623,79.333.64a.64.64,0,0,0-.347-.568.633.633,0,0,0-.664.049,16.249,16.249,0,0,0-6,8.668,28.3,28.3,0,0,0-.657,6.48c-2.605-.556-3.2-4.454-3.2-4.5a.639.639,0,0,0-.912-.485c-.137.066-3.354,1.7-3.541,8.227-.013.217-.014.435-.014.653a11.513,11.513,0,0,0,11.5,11.5.089.089,0,0,0,.026,0h.008A11.513,11.513,0,0,0,87,19.167C87,18.848,86.934,17.955,86.934,17.955ZM75.5,29.388A3.969,3.969,0,0,1,71.667,25.3c0-.077,0-.154,0-.249a5.179,5.179,0,0,1,.4-2.029,2.333,2.333,0,0,0,2.109,1.528.639.639,0,0,0,.639-.639,12.781,12.781,0,0,1,.245-2.906,6.178,6.178,0,0,1,1.293-2.449,8.232,8.232,0,0,0,1.317,2.416,7.279,7.279,0,0,1,1.638,3.989c.008.11.016.22.016.339A3.969,3.969,0,0,1,75.5,29.388Z" transform="translate(-64 0)"/></g></g></svg>