<svg xmlns="http://www.w3.org/2000/svg" width="22" height="22" viewBox="0 0 22 22"><defs><style>.a{fill:#fff;}</style></defs><g transform="translate(0)"><g transform="translate(12.994)"><path class="a" d="M302.909,3.57a1.826,1.826,0,0,0-.538-1.3L300.638.538A1.878,1.878,0,0,0,299.327,0h-.105V3.675h3.687V3.57Z" transform="translate(-299.222)"/></g><path class="a" d="M11.954,13.3a2.581,2.581,0,0,1,.629-1.006l4.432-4.346V5.156h-4.6a.631.631,0,0,1-.633-.645V0H1.964A1.951,1.951,0,0,0,0,1.934V20.067A1.951,1.951,0,0,0,1.964,22h13.07a1.966,1.966,0,0,0,1.981-1.934v-4.81l-.719.691a2.61,2.61,0,0,1-1.018.618L13.2,17.25l-.317.017a1.651,1.651,0,0,1-1.328-.672,1.6,1.6,0,0,1-.222-1.451ZM3.273,11.6H9.8a.645.645,0,1,1,0,1.289H3.273a.645.645,0,1,1,0-1.289ZM2.618,9.668a.649.649,0,0,1,.655-.645H9.8a.645.645,0,1,1,0,1.289H3.273A.649.649,0,0,1,2.618,9.668Zm0,5.156a.649.649,0,0,1,.655-.645H9.8a.645.645,0,1,1,0,1.289H3.273A.649.649,0,0,1,2.618,14.824Zm9.8,3.223a.645.645,0,1,1,0,1.289H8.488a.645.645,0,1,1,0-1.289ZM3.273,7.734a.645.645,0,1,1,0-1.289h9.142a.645.645,0,1,1,0,1.289Z"/><g transform="translate(12.425 13.944)"><path class="a" d="M288.212,322.808l-.533,1.6a.306.306,0,0,0,.388.387l1.6-.534Z" transform="translate(-287.663 -322.808)"/></g><g transform="translate(14.111 8.726)"><path class="a" d="M322.854,199.307l-4.034,4.034,1.74,1.74,4.034-4.034Z" transform="translate(-318.82 -199.307)"/></g><g transform="translate(19.012 6.41)"><path class="a" d="M441.447,148.289a1.279,1.279,0,0,0-1.738,0l-.89.89,1.74,1.74.89-.89A1.233,1.233,0,0,0,441.447,148.289Z" transform="translate(-438.819 -147.949)"/></g><g transform="translate(21.641 8.534)"><path class="a" d="M503.215,198.812h0l0,0Z" transform="translate(-503.215 -198.8)"/><path class="a" d="M503.3,198.68l.005-.005Z" transform="translate(-503.299 -198.672)"/><path class="a" d="M503.436,198.6Z" transform="translate(-503.427 -198.602)"/></g></g></svg>