<svg xmlns="http://www.w3.org/2000/svg" width="22" height="22.023" viewBox="0 0 22 22.023"><defs><style>.a{fill:#fff;}</style></defs><path class="a" d="M22.019,8.847a.416.416,0,0,0-.253-.3,9.686,9.686,0,0,0-3.6-.687,10.422,10.422,0,0,0-4.025.807L7.957,3.406A4.645,4.645,0,0,0,7.1.154.418.418,0,0,0,6.8,0a.431.431,0,0,0-.316.121L.149,6.458a.416.416,0,0,0,.035.619,4.475,4.475,0,0,0,2.78.87c.171,0,.317-.008.429-.017l5.285,6.212a10.89,10.89,0,0,0-.128,7.618.415.415,0,0,0,.68.14l6.053-6.053,5.637,5.637a.415.415,0,1,0,.587-.587l-5.637-5.637,6.035-6.035A.416.416,0,0,0,22.019,8.847Z" transform="translate(-0.027 0)"/></svg>